<?xml version="1.0" ?><!-- Uploaded to: SVG Repo, www.svgrepo.com, Generator: SVG Repo Mixer Tools -->
<svg fill="#000000" width="800px" height="800px" viewBox="0 0 512 512" data-name="Layer 1" id="Layer_1" xmlns="http://www.w3.org/2000/svg"><path d="M314,77.21H196.83a4.53,4.53,0,0,0-4.53,4.53V97.79H175.71a4.53,4.53,0,0,0-4.53,4.54l0,97.16a4.54,4.54,0,1,0,9.07,0V106.85l108.1,0v61.48a4.53,4.53,0,1,0,9.06,0v-66a4.53,4.53,0,0,0-4.53-4.53H201.36V86.26l108.09,0v91a4.54,4.54,0,1,0,9.07,0V81.74A4.53,4.53,0,0,0,314,77.21Z"/><path d="M268.88,130H199.7a4.54,4.54,0,1,0,0,9.07h69.17a4.54,4.54,0,1,0,0-9.07Z"/><path d="M268.87,163.81H199.69a4.54,4.54,0,0,0,0,9.07h69.18a4.54,4.54,0,0,0,0-9.07Z"/><path d="M396.73,339.7,388.43,257a37.63,37.63,0,0,0-13-24.9c-5.68-4.88-12.12-9.94-18.73-14.89l0-133A31.86,31.86,0,0,0,325,52.39l-160.18,0A31.85,31.85,0,0,0,133,84.19l0,118.63a19.15,19.15,0,0,0-3.77,1.31A19.5,19.5,0,0,0,119,215.18L116.19,223a19.58,19.58,0,0,0,9.6,24.2,19.48,19.48,0,0,0-6.77,9L116.19,264a19.55,19.55,0,0,0,9.6,24.2,19.49,19.49,0,0,0-6.78,9.05L116.18,305a19.57,19.57,0,0,0,9.59,24.19,19.45,19.45,0,0,0-6.76,9.06L116.18,346a19.6,19.6,0,0,0,11.69,25.11L163.16,384a21.2,21.2,0,0,0,2.55.75L175,396.55a78,78,0,0,0,42.16,27.25l7.54,1.89a6.57,6.57,0,0,1,5,6.39v23a4.54,4.54,0,0,0,9.07,0v-23a15.63,15.63,0,0,0-11.87-15.19L219.38,415a68.88,68.88,0,0,1-37.24-24.08l-5-6.29a24.6,24.6,0,0,0,4-1.43,23.58,23.58,0,0,0,5.83-3.87H313c1.29,2,2.68,4.07,4.2,6.1A4.53,4.53,0,1,0,324.5,380q-2.81-3.76-5.05-7.51l-.08-.14c-30.68-51.38,14.84-98.83,16.89-100.92a4.54,4.54,0,0,0-1.4-7.32c-17.85-7.89-31-17.8-39-29.45-8.47-12.24-6.38-29.28,5.06-39.83a5.47,5.47,0,0,1,6.68-.58c12,7.71,42,27.48,62,44.67a28.64,28.64,0,0,1,9.85,18.93l8.3,82.72a47.07,47.07,0,0,1-4.93,26.18L371,389.84a60.72,60.72,0,0,0-6.61,27.47v37.78a4.54,4.54,0,1,0,9.07,0V417.31A51.45,51.45,0,0,1,379.07,394l11.78-23.06A56.13,56.13,0,0,0,396.73,339.7ZM125.06,234.1a10.43,10.43,0,0,1-.35-8l2.83-7.78A10.48,10.48,0,0,1,141,212l55.69,20.29a14.58,14.58,0,0,1,8.51,18.91,14.48,14.48,0,0,1-18.55,8.64L131,239.55A10.42,10.42,0,0,1,125.06,234.1Zm0,41a10.5,10.5,0,0,1-.35-8.05l2.84-7.76A10.51,10.51,0,0,1,141,253l48.74,17.76a14.58,14.58,0,0,1,8.51,18.91,14.44,14.44,0,0,1-18.54,8.64L131,280.57A10.47,10.47,0,0,1,125.05,275.12Zm0,41a10.46,10.46,0,0,1-.35-8.05l2.83-7.77A10.51,10.51,0,0,1,141,294l39,14.21a14.58,14.58,0,0,1,8.51,18.91A14.48,14.48,0,0,1,170,335.8l-39-14.21A10.42,10.42,0,0,1,125.05,316.14Zm59.76,50.69a14.47,14.47,0,0,1-18.55,8.64L131,362.61a10.54,10.54,0,0,1-6.29-13.5l2.83-7.77A10.54,10.54,0,0,1,141,335.06l35.3,12.86a14.39,14.39,0,0,1,8.16,7.48A14.62,14.62,0,0,1,184.81,366.83Zm8.38,3.44.27-.7A23.56,23.56,0,0,0,185.92,343a23.66,23.66,0,0,0,11.27-13.12c.23-.65.43-1.3.61-2H300.27A78.45,78.45,0,0,0,308,370.29ZM347.68,210.55c-14.25-10.23-28-19.24-35.21-23.89a14.63,14.63,0,0,0-18,1.72c-14.53,13.41-17.18,35.54-6.16,51.48,8.15,11.76,20.68,21.84,37.3,30-6.64,8.18-19.4,26.25-24,49l-103.22,0a23.7,23.7,0,0,0-5.32-12.15c.51-.2,1-.41,1.54-.65a23.9,23.9,0,0,0,6.75-38.41l.19-.08a23.81,23.81,0,0,0-1.75-43.81l-55.68-20.29a19.3,19.3,0,0,0-2.14-.64V84.19a22.78,22.78,0,0,1,22.76-22.75l160.18,0A22.78,22.78,0,0,1,347.7,84.21Z"/></svg>